HIERARCHY
ROOT Hips
{
	OFFSET 0.000000 0.000000 0.000000
	CHANNELS 6 Xposition Yposition Zposition Zrotation Yrotation Xrotation 
	JOINT LHipJoint
	{
		OFFSET 0.000000 0.000000 0.000000
		CHANNELS 3 Zrotation Yrotation Xrotation
		JOINT LeftUpLeg
		{
			OFFSET 1.363060 -1.794630 0.839290
			CHANNELS 3 Zrotation Yrotation Xrotation
			JOINT LeftLeg
			{
				OFFSET 2.448110 -6.726130 0.000000
				CHANNELS 3 Zrotation Yrotation Xrotation
				JOINT LeftFoot
				{
					OFFSET 2.562200 -7.039590 0.000000
					CHANNELS 3 Zrotation Yrotation Xrotation
					JOINT LeftToeBase
					{
						OFFSET 0.157640 -0.433110 2.322550
						CHANNELS 3 Zrotation Yrotation Xrotation
						End Site
						{
							OFFSET 0.000000 0.000000 0.000000
						}
					}
				}
			}
		}
	}
	JOINT RHipJoint
	{
		OFFSET 0.000000 0.000000 0.000000
		CHANNELS 3 Zrotation Yrotation Xrotation
		JOINT RightUpLeg
		{
			OFFSET -1.305520 -1.794630 0.839290
			CHANNELS 3 Zrotation Yrotation Xrotation
			JOINT RightLeg
			{
				OFFSET -2.542530 -6.985550 0.000000
				CHANNELS 3 Zrotation Yrotation Xrotation
				JOINT RightFoot
				{
					OFFSET -2.568260 -7.056230 0.000000
					CHANNELS 3 Zrotation Yrotation Xrotation
					JOINT RightToeBase
					{
						OFFSET -0.164730 -0.452590 2.363150
						CHANNELS 3 Zrotation Yrotation Xrotation
						End Site
						{
							OFFSET 0.000000 0.000000 0.000000
						}
					}
				}
			}
		}
	}
	JOINT LowerBack
	{
		OFFSET 0.000000 0.000000 0.000000
		CHANNELS 3 Zrotation Yrotation Xrotation
		JOINT Spine
		{
			OFFSET 0.028270 2.035590 -0.193380
			CHANNELS 3 Zrotation Yrotation Xrotation
			JOINT Spine1
			{
				OFFSET 0.056720 2.048850 -0.042750
				CHANNELS 3 Zrotation Yrotation Xrotation
				JOINT Neck
				{
					OFFSET 0.000000 0.000000 0.000000
					CHANNELS 3 Zrotation Yrotation Xrotation
					JOINT Neck1
					{
						OFFSET -0.054170 1.746240 0.172020
						CHANNELS 3 Zrotation Yrotation Xrotation
						JOINT Head
						{
							OFFSET 0.104070 1.761360 -0.123970
							CHANNELS 3 Zrotation Yrotation Xrotation
							End Site
							{
								OFFSET 0.000000 0.000000 0.000000
							}
						}
					}
				}
				JOINT LeftShoulder
				{
					OFFSET 0.000000 0.000000 0.000000
					CHANNELS 3 Zrotation Yrotation Xrotation
					JOINT LeftArm
					{
						OFFSET 3.362410 1.200890 -0.311210
						CHANNELS 3 Zrotation Yrotation Xrotation
						JOINT LeftForeArm
						{
							OFFSET 4.983000 -0.000000 -0.000000
							CHANNELS 3 Zrotation Yrotation Xrotation
							JOINT LeftHand
							{
								OFFSET 3.483560 -0.000000 -0.000000
								CHANNELS 3 Zrotation Yrotation Xrotation
								JOINT LeftFingerBase
								{
									OFFSET 0.000000 0.000000 0.000000
									CHANNELS 3 Zrotation Yrotation Xrotation
									JOINT LeftHandIndex1
									{
										OFFSET 0.715260 -0.000000 -0.000000
										CHANNELS 3 Zrotation Yrotation Xrotation
										End Site
										{
											OFFSET 0.000000 0.000000 0.000000
										}
									}
								}
								JOINT LThumb
								{
									OFFSET 0.000000 0.000000 0.000000
									CHANNELS 3 Zrotation Yrotation Xrotation
									End Site
									{
										OFFSET 0.000000 0.000000 0.000000
									}
								}
							}
						}
					}
				}
				JOINT RightShoulder
				{
					OFFSET 0.000000 0.000000 0.000000
					CHANNELS 3 Zrotation Yrotation Xrotation
					JOINT RightArm
					{
						OFFSET -3.136600 1.374050 -0.404650
						CHANNELS 3 Zrotation Yrotation Xrotation
						JOINT RightForeArm
						{
							OFFSET -5.241900 -0.000000 -0.000000
							CHANNELS 3 Zrotation Yrotation Xrotation
							JOINT RightHand
							{
								OFFSET -3.444170 -0.000000 -0.000000
								CHANNELS 3 Zrotation Yrotation Xrotation
								JOINT RightFingerBase
								{
									OFFSET 0.000000 0.000000 0.000000
									CHANNELS 3 Zrotation Yrotation Xrotation
									JOINT RightHandIndex1
									{
										OFFSET -0.622530 -0.000000 -0.000000
										CHANNELS 3 Zrotation Yrotation Xrotation
										End Site
										{
											OFFSET 0.000000 0.000000 0.000000
										}
									}
								}
								JOINT RThumb
								{
									OFFSET 0.000000 0.000000 0.000000
									CHANNELS 3 Zrotation Yrotation Xrotation
									End Site
									{
										OFFSET 0.000000 0.000000 0.000000
									}
								}
							}
						}
					}
				}
			}
		}
	}
}
MOTION
Frames: 9
Frame Time: 0.008333
-20.526282 16.691980 -0.201655 2.473649 81.749132 32.729023 -8.326916 -1.243887 2.402065 -6.440002 -9.813163 -55.605093 -1.571550 0.527606 26.194395 1.528628 7.206317 -2.442463 1.263400 0.000000 -21.250000 10.754181 -2.399362 -2.423920 4.816316 -2.388968 -9.271586 1.287919 -1.890560 25.182598 0.064429 2.961368 8.873857 0.677500 0.000000 -76.624001 -8.319912 0.953358 2.145983 -3.238160 1.293563 -2.547368 -8.370559 1.147698 0.634175 6.658395 8.310470 5.243932 -5.828166 -0.476978 2.814412 0.000000 0.000000 0.000000 -5.399032 -4.008605 2.548780 -53.482711 -14.070038 9.523298 -4.248286 -15.969173 -0.004422 1.287460 2.161648 0.026080 -0.107717 0.058701 0.000000 0.000000 0.000000 0.000000 0.000000 0.000000 0.000000 22.216847 5.697663 -0.252264 69.577015 14.219136 3.203951 2.309570 22.438588 0.004987 -0.015923 9.178687 -0.003189 0.027597 -0.111515 -0.000000 0.000000 0.000000 0.000000 0.000000 0.000000 0.000000 
-20.375122 16.718224 -0.224123 2.173765 81.546932 32.527273 -8.328732 -1.192720 2.352202 -6.805278 -9.589107 -55.087846 -1.629217 0.503769 26.222076 1.529688 7.110161 -3.032262 1.159599 -0.000000 -21.043700 10.899091 -2.394273 -2.452308 4.504619 -2.858774 -10.551403 1.096413 -2.082849 27.379034 -0.006257 3.025008 10.834084 0.842600 0.000001 -76.093399 -8.434489 0.988429 2.172759 -3.266151 1.334625 -2.537764 -8.337033 1.189262 0.640207 6.440312 8.315463 5.312241 -5.823614 -0.476782 2.826322 0.000000 0.000000 0.000000 -5.431442 -4.247628 2.559096 -53.773395 -14.841435 8.848754 -4.262255 -14.335968 -0.005187 1.307418 2.495392 0.030356 -0.104887 0.067238 0.000000 0.000000 0.000000 0.000000 0.000000 0.000000 0.000000 21.988611 5.679355 -0.264789 69.581474 13.916486 3.833710 2.294067 22.931620 0.004997 0.111874 9.103204 0.007208 0.026391 -0.111293 -0.000000 0.000000 0.000000 0.000000 0.000000 0.000000 0.000000 
-20.225048 16.744350 -0.245849 1.897561 81.341354 32.347067 -8.335447 -1.137486 2.292095 -7.217657 -9.279133 -54.561401 -1.700487 0.480292 26.176186 1.510063 6.931157 -3.504306 1.063699 -0.000000 -20.868900 11.039389 -2.371845 -2.464049 4.221660 -3.289978 -11.877522 0.901414 -2.256436 29.609954 -0.108692 2.928223 12.753132 0.965200 -0.000000 -74.818799 -8.540262 1.011062 2.189891 -3.292618 1.363122 -2.527215 -8.311672 1.218497 0.655437 6.233222 8.337275 5.359465 -5.822073 -0.476486 2.832437 0.000000 0.000000 0.000000 -5.461610 -4.383298 2.570977 -54.053711 -15.726118 8.238745 -4.269545 -12.746542 -0.005948 1.386986 2.796089 0.035736 -0.102050 0.076127 0.000000 0.000000 0.000000 0.000000 0.000000 0.000000 0.000000 21.790384 5.681544 -0.280727 69.571060 13.640617 4.485880 2.282748 23.424030 0.005051 0.331113 9.004353 0.024802 0.024429 -0.110637 -0.000000 0.000000 0.000000 0.000000 0.000000 0.000000 0.000000 
-20.076544 16.770524 -0.266551 1.719244 81.149768 32.256386 -8.342556 -1.079093 2.222807 -7.673296 -8.912441 -54.016713 -1.784012 0.455133 26.065974 1.473398 6.682072 -3.893782 0.973499 0.000000 -20.726500 11.174640 -2.331171 -2.464717 3.965389 -3.690331 -13.228240 0.709795 -2.411741 31.852437 -0.240522 2.640541 14.570511 1.014200 -0.000000 -72.896600 -8.641358 1.017443 2.204839 -3.318252 1.375434 -2.516381 -8.294055 1.231449 0.670596 6.044095 8.361736 5.393090 -5.824430 -0.476234 2.835117 0.000000 0.000000 0.000000 -5.478521 -4.491022 2.587087 -54.322613 -16.619018 7.676674 -4.266881 -11.289707 -0.006707 1.524667 3.061934 0.042619 -0.099002 0.084862 0.000000 0.000000 0.000000 0.000000 0.000000 0.000000 0.000000 21.632607 5.684763 -0.293923 69.540656 13.400888 5.170810 2.274286 23.907609 0.005127 0.615548 8.894869 0.047094 0.021865 -0.109713 -0.000000 0.000000 0.000000 0.000000 0.000000 0.000000 0.000000 
-19.929821 16.796889 -0.286119 1.692577 80.987868 32.301800 -8.346072 -1.018069 2.146006 -8.165909 -8.519547 -53.438852 -1.877874 0.425755 25.895846 1.424401 6.379863 -4.236715 0.886600 -0.000000 -20.613900 11.304317 -2.272441 -2.461075 3.732671 -4.071316 -14.581247 0.528241 -2.550975 34.084493 -0.397304 2.140752 16.220645 0.960100 -0.000001 -70.483600 -8.740282 1.005379 2.225626 -3.343156 1.369445 -2.506665 -8.281980 1.225551 0.673316 5.877831 8.381351 5.425794 -5.830584 -0.476158 2.838204 0.000000 0.000000 0.000000 -5.467171 -4.660081 2.610466 -54.585497 -17.397162 7.128358 -4.251610 -10.060573 -0.007465 1.714529 3.295528 0.051003 -0.095574 0.092945 0.000000 0.000000 0.000000 0.000000 0.000000 0.000000 0.000000 21.518429 5.677278 -0.297342 69.487967 13.193851 5.883317 2.267328 24.379848 0.005209 0.937859 8.786439 0.071787 0.018876 -0.108738 -0.000000 0.000000 0.000000 0.000000 0.000000 0.000000 0.000000 
-19.784874 16.823656 -0.304765 1.822461 80.865139 32.482881 -8.344232 -0.955311 2.062702 -8.681317 -8.125562 -52.813399 -1.979180 0.390325 25.668333 1.367857 6.041176 -4.565585 0.800600 0.000000 -20.525500 11.425503 -2.196292 -2.460984 3.526217 -4.439683 -15.914346 0.361552 -2.677106 36.282626 -0.573727 1.414362 17.643926 0.778700 -0.000000 -67.821500 -8.830889 0.974071 2.263197 -3.365978 1.344124 -2.492740 -8.276728 1.200543 0.674478 5.737231 8.398371 5.447279 -5.838801 -0.476000 2.838572 0.000000 0.000000 0.000000 -5.453857 -4.813818 2.639708 -54.823293 -18.171074 6.730843 -4.231130 -9.022873 -0.008209 1.941804 3.473672 0.060291 -0.092332 0.100375 0.000000 0.000000 0.000000 0.000000 0.000000 0.000000 0.000000 21.442977 5.662250 -0.299289 69.416968 13.017817 6.583507 2.259629 24.856763 0.005272 1.282766 8.686232 0.097778 0.015483 -0.107742 -0.000000 0.000000 0.000000 0.000000 0.000000 0.000000 0.000000 
-19.641656 16.851019 -0.322791 2.109455 80.788681 32.793402 -8.336020 -0.891313 1.974893 -9.206089 -7.752259 -52.123248 -2.084857 0.346845 25.381047 1.308375 5.684156 -4.902465 0.714800 -0.000000 -20.455600 11.536732 -2.104987 -2.470612 3.346621 -4.802755 -17.208132 0.212532 -2.794109 38.428196 -0.763930 0.463329 18.785893 0.458900 -0.000000 -65.134600 -8.909300 0.924968 2.324044 -3.385445 1.300676 -2.475475 -8.275563 1.157356 0.665542 5.622481 8.405898 5.467812 -5.848319 -0.475832 2.839363 0.000000 0.000000 0.000000 -5.431148 -5.016631 2.675688 -55.045315 -18.854291 6.453394 -4.204960 -8.238701 -0.008920 2.191621 3.599953 0.069882 -0.089245 0.106846 0.000000 0.000000 0.000000 0.000000 0.000000 0.000000 0.000000 21.401174 5.630971 -0.295126 69.326983 12.867979 7.265459 2.250282 25.336417 0.005307 1.619337 8.605133 0.122770 0.011953 -0.106943 -0.000000 0.000000 0.000000 0.000000 0.000000 0.000000 0.000000 
-19.500255 16.879088 -0.340724 2.502422 80.761401 33.179109 -8.324281 -0.827128 1.885096 -9.718726 -7.410989 -51.360932 -2.190966 0.295043 25.035547 1.249323 5.321391 -5.260132 0.628900 0.000000 -20.398500 11.633521 -2.002062 -2.494409 3.204174 -5.160490 -18.447058 0.081759 -2.905029 40.502820 -0.961985 -0.696157 19.602258 0.004600 -0.000000 -62.615100 -8.962777 0.861544 2.411785 -3.398479 1.241918 -2.454274 -8.276699 1.098898 0.646316 5.529822 8.397515 5.489327 -5.857814 -0.475611 2.841353 0.000000 0.000000 0.000000 -5.406450 -5.278105 2.716950 -55.255532 -19.436772 6.295502 -4.175134 -7.718824 -0.009564 2.444732 3.670392 0.078976 -0.086461 0.112274 0.000000 0.000000 0.000000 0.000000 0.000000 0.000000 0.000000 21.381561 5.577733 -0.285034 69.220053 12.744418 7.919835 2.238853 25.815651 0.005315 1.917568 8.554771 0.144860 0.008581 -0.106509 -0.000000 0.000000 0.000000 0.000000 0.000000 0.000000 0.000000 
-19.360624 16.908066 -0.358639 3.024784 80.779193 33.658772 -8.306795 -0.763274 1.792911 -10.215176 -7.116784 -50.504275 -2.295059 0.232446 24.614769 1.194611 4.976194 -5.632609 0.546100 0.000000 -20.348200 11.718807 -1.889032 -2.536658 3.086517 -5.515982 -19.621451 -0.031919 -3.014424 42.497363 -1.162760 -2.024542 20.063458 -0.559200 -0.000000 -60.384100 -8.995501 0.785288 2.533088 -3.406267 1.169620 -2.425419 -8.281457 1.027532 0.625654 5.463936 8.383559 5.506093 -5.865683 -0.475137 2.842489 0.000000 0.000000 0.000000 -5.399672 -5.525703 2.761473 -55.440796 -20.021573 6.375312 -4.148158 -7.410549 -0.010144 2.694152 3.673034 0.086674 -0.084457 0.116808 0.000000 0.000000 0.000000 0.000000 0.000000 0.000000 0.000000 21.382520 5.515321 -0.276831 69.099068 12.631030 8.503998 2.223253 26.319661 0.005275 2.179636 8.526315 0.164452 0.005245 -0.106371 -0.000000 0.000000 0.000000 0.000000 0.000000 0.000000 0.000000 
